<svg width="140" height="140" viewBox="0 0 140 140" fill="none" xmlns="http://www.w3.org/2000/svg">
<path d="M53.7906 45.543C65.3749 46.6006 77.9973 46.4892 89.2956 45.2306C100.614 43.9698 109.745 41.6532 115.049 38.7605C117.696 37.3168 119.24 35.8122 119.779 34.3396C120.311 32.887 119.893 31.3911 118.404 29.8956C116.9 28.386 114.36 26.9387 110.888 25.636C107.424 24.3359 103.074 23.195 97.9986 22.283C87.8474 20.4589 75.554 19.6863 63.4165 20.1161C51.2741 20.546 40.1662 22.148 32.1554 24.6046C28.1496 25.8331 25.0902 27.2226 23.0427 28.6857C20.9973 30.1472 20 31.6519 20 33.1313L20 39.697C20 41.2975 21.1698 42.4398 23.628 44.0359C26.0874 45.6327 29.7337 47.1081 34.394 48.3614C39.0481 49.6131 44.5895 50.61 50.7044 51.2912C56.818 51.9723 63.3751 52.3233 70 52.3233C76.6249 52.3233 83.182 51.9723 89.2956 51.2912C95.4105 50.61 100.952 49.6131 105.606 48.3614C110.266 47.1081 113.913 45.6327 116.372 44.0359C117.327 43.4159 118.087 42.5466 118.66 41.7153C118.978 41.2539 120 41.4954 120 42.0558V58.3839C120 59.9844 118.83 61.6318 116.372 63.2279C113.913 64.8246 110.266 66.3 105.606 67.5533C100.952 68.805 95.4105 69.8019 89.2956 70.4831C83.182 71.1642 76.6249 71.5152 70 71.5152C63.3751 71.5152 56.818 71.1642 50.7044 70.4831C44.5895 69.8019 39.0481 68.805 34.394 67.5533C29.7337 66.3 26.0874 64.8246 23.628 63.2279C22.6731 62.6078 21.9126 61.7385 21.3396 60.9072C21.0215 60.4458 20 60.6873 20 61.2477V64.4445C20 66.045 21.1698 67.6924 23.628 69.2885C26.0874 70.8852 29.7337 72.3606 34.394 73.6139C39.0481 74.8656 44.5895 75.8626 50.7044 76.5437C56.818 77.2248 63.3751 77.5758 70 77.5758C76.6249 77.5758 83.182 77.2248 89.2956 76.5437C95.4105 75.8626 100.952 74.8656 105.606 73.6139C110.266 72.3606 113.913 70.8852 116.372 69.2885C117.327 68.6684 118.087 67.7991 118.66 66.9678C118.978 66.5064 120 66.7479 120 67.3083V82.6263C120 84.2268 118.83 85.8742 116.372 87.4703C113.913 89.0671 110.266 90.5424 105.606 91.7957C100.952 93.0474 95.4105 94.0444 89.2956 94.7256C83.182 95.4066 76.6249 95.7576 70 95.7576C63.3751 95.7576 56.818 95.4066 50.7044 94.7256C44.5895 94.0444 39.0481 93.0474 34.394 91.7957C29.7337 90.5424 26.0874 89.067 23.628 87.4703C22.6731 86.8502 21.9126 85.981 21.3396 85.1496C21.0215 84.6883 20 84.9298 20 85.4901V88.6869C20 90.2874 21.1698 91.9348 23.628 93.5309C26.0874 95.1277 29.7337 96.603 34.394 97.8563C39.0481 99.108 44.5895 100.105 50.7044 100.786C56.818 101.467 63.3751 101.818 70 101.818C76.6249 101.818 83.182 101.467 89.2956 100.786C95.4105 100.105 100.952 99.108 105.606 97.8563C110.266 96.603 113.913 95.1277 116.372 93.5309C117.327 92.9109 118.087 92.0416 118.66 91.2102C118.978 90.7489 120 90.9904 120 91.5507V106.869C120 108.469 118.83 110.117 116.372 111.713C113.913 113.309 110.266 114.785 105.606 116.038C100.952 117.29 95.4105 118.287 89.2956 118.968C83.182 119.649 76.6249 120 70 120C63.3751 120 56.818 119.649 50.7044 118.968C44.5895 118.287 39.0481 117.29 34.394 116.038C29.7337 114.785 26.0874 113.309 23.628 111.713C21.1698 110.117 20 108.469 20 106.869" stroke="url(#paint0_linear)" stroke-width="2" stroke-linecap="round" stroke-linejoin="round"/>
<path fill-rule="evenodd" clip-rule="evenodd" d="M72.0979 22.1464C72.2932 21.9512 72.6097 21.9512 72.805 22.1464L77.0476 26.3891C77.2429 26.5843 77.2429 26.9009 77.0476 27.0962L76.3405 27.8033C76.1453 27.9986 75.8287 27.9986 75.6334 27.8033L71.3908 23.5607C71.1955 23.3654 71.1955 23.0488 71.3908 22.8536L72.0979 22.1464ZM72.6083 28.7929L58.4845 42.9167L55.6055 43.6743L56.3631 40.7954L70.487 26.6716L72.6083 28.7929ZM54.5322 39.8942L53.3836 44.259L53.3771 44.2835L53.242 44.797L53.017 45.6521C52.9195 46.0224 53.2575 46.3603 53.6278 46.2629L54.4829 46.0378L54.9963 45.9027L55.0208 45.8963L59.3856 44.7476C59.4712 44.7251 59.5493 44.6803 59.6119 44.6177L75.0832 29.1464C75.2784 28.9512 75.2784 28.6346 75.0832 28.4393L70.8405 24.1967C70.6453 24.0014 70.3287 24.0014 70.1334 24.1967L54.6622 39.6679C54.5996 39.7305 54.5547 39.8086 54.5322 39.8942Z" fill="#9333EA"/>
<defs>
<linearGradient id="paint0_linear" x1="70" y1="46" x2="70" y2="120" gradientUnits="userSpaceOnUse">
<stop stop-color="#9333EA"/>
<stop offset="1" stop-color="#3B82F6"/>
</linearGradient>
</defs>
</svg>
