<svg width="131" height="130" viewBox="0 0 131 130" fill="none" xmlns="http://www.w3.org/2000/svg">
<path d="M45.8866 43.7178C59.9037 45.3209 75.1767 45.1521 88.8476 43.2443C102.543 41.3331 113.591 37.8218 120.009 33.437C123.213 31.2486 125.08 28.968 125.733 26.7359C126.376 24.534 125.871 22.2664 124.068 19.9997C122.248 17.7115 119.175 15.5177 114.975 13.5429C110.783 11.5723 105.519 9.84295 99.3783 8.4606C87.0953 5.69554 72.2203 4.52455 57.534 5.17596C42.8417 5.82762 29.4011 8.25595 19.7081 11.9797C14.8611 13.8417 11.1592 15.948 8.68163 18.1657C6.20678 20.381 5 22.6618 5 24.9044L5 34.8565C5 37.2826 6.41541 39.0141 9.38993 41.4334C12.3657 43.8538 16.7777 46.0901 22.4167 47.9899C28.0482 49.8872 34.7533 51.3984 42.1524 52.4309C49.5498 53.4632 57.4839 53.9953 65.5 53.9953C73.5161 53.9953 81.4502 53.4632 88.8476 52.4309C96.2467 51.3984 102.952 49.8872 108.583 47.9899C114.222 46.0901 118.634 43.8538 121.61 41.4334C122.933 40.3577 123.947 38.7868 124.666 37.3739C124.929 36.8575 126 37.0603 126 37.6396V52.6555C126 55.0816 124.585 57.5787 121.61 59.998C118.634 62.4184 114.222 64.6547 108.583 66.5545C102.952 68.4518 96.2467 69.963 88.8476 70.9955C81.4502 72.0278 73.5161 72.5598 65.5 72.5598C57.4839 72.5598 49.5498 72.0278 42.1524 70.9955C34.7533 69.963 28.0482 68.4518 22.4167 66.5545C16.7777 64.6547 12.3657 62.4184 9.38993 59.998C8.06729 58.9222 7.05292 57.3514 6.33418 55.9385C6.07151 55.4221 5 55.6249 5 56.2042V61.8421C5 64.2682 6.41541 66.7653 9.38993 69.1846C12.3657 71.605 16.7777 73.8413 22.4167 75.7411C28.0482 77.6384 34.7533 79.1496 42.1524 80.1821C49.5498 81.2144 57.4839 81.7464 65.5 81.7464C73.5161 81.7464 81.4502 81.2144 88.8476 80.1821C96.2467 79.1496 102.952 77.6384 108.583 75.7411C114.222 73.8413 118.634 71.605 121.61 69.1846C122.933 68.1088 123.947 66.538 124.666 65.1251C124.929 64.6087 126 64.8115 126 65.3908V78.8756C126 81.3017 124.585 83.7988 121.61 86.2181C118.634 88.6385 114.222 90.8748 108.583 92.7746C102.952 94.6719 96.2467 96.183 88.8476 97.2156C81.4502 98.2479 73.5161 98.7799 65.5 98.7799C57.4839 98.7799 49.5498 98.2479 42.1524 97.2156C34.7533 96.183 28.0482 94.6719 22.4167 92.7746C16.7777 90.8748 12.3657 88.6385 9.38993 86.2181C8.06729 85.1423 7.05291 83.5715 6.33417 82.1586C6.07151 81.6422 5 81.845 5 82.4243V88.0622C5 90.4883 6.41541 92.9853 9.38993 95.4047C12.3657 97.8251 16.7777 100.061 22.4167 101.961C28.0482 103.858 34.7533 105.37 42.1524 106.402C49.5498 107.435 57.4839 107.967 65.5 107.967C73.5161 107.967 81.4502 107.435 88.8476 106.402C96.2467 105.37 102.952 103.858 108.583 101.961C114.222 100.061 118.634 97.8251 121.61 95.4047C122.933 94.3289 123.947 92.7581 124.666 91.3452C124.929 90.8288 126 91.0316 126 91.6109V105.096C126 107.522 124.585 110.019 121.61 112.438C118.634 114.859 114.222 117.095 108.583 118.995C102.952 120.892 96.2467 122.403 88.8476 123.436C81.4502 124.468 73.5161 125 65.5 125C57.4839 125 49.5498 124.468 42.1524 123.436C34.7533 122.403 28.0482 120.892 22.4167 118.995C16.7777 117.095 12.3657 114.859 9.38993 112.438C6.41541 110.019 5 107.522 5 105.096" stroke="url(#paint0_linear)" stroke-width="3" stroke-linecap="round" stroke-linejoin="round"/>
<mask id="path-2-inside-1" fill="white">
<path fill-rule="evenodd" clip-rule="evenodd" d="M73.01 11.145C72.8139 10.9505 72.496 10.9505 72.3 11.145L69.9354 13.4901C69.7393 13.6845 69.7393 13.9998 69.9354 14.1942L75.8608 20.0707C76.0569 20.2651 76.3748 20.2651 76.5708 20.0707L78.9355 17.7256C79.1315 17.5312 79.1315 17.2159 78.9355 17.0215L73.01 11.145ZM45.9628 44.5674C45.591 44.6644 45.2517 44.3279 45.3495 43.9591L47.4658 35.9839C47.4884 35.8986 47.5334 35.8209 47.5963 35.7585L68.4877 15.0398C68.6837 14.8454 69.0016 14.8454 69.1977 15.0398L75.1232 20.9163C75.3192 21.1108 75.3192 21.426 75.1232 21.6205L54.2318 42.3392C54.1689 42.4015 54.0905 42.4462 54.0045 42.4686L45.9628 44.5674Z"/>
</mask>
<path d="M72.3 11.145L74.4125 13.2751L74.4125 13.2751L72.3 11.145ZM73.01 11.145L70.8975 13.2751L70.8975 13.2751L73.01 11.145ZM69.9354 13.4901L67.8229 11.3599L67.8229 11.36L69.9354 13.4901ZM69.9354 14.1942L72.0479 12.0641L72.0479 12.0641L69.9354 14.1942ZM75.8608 20.0707L77.9733 17.9406L77.9733 17.9406L75.8608 20.0707ZM76.5708 20.0707L74.4583 17.9406L74.4583 17.9406L76.5708 20.0707ZM78.9355 17.7256L76.823 15.5955L76.823 15.5955L78.9355 17.7256ZM78.9355 17.0215L76.823 19.1516L76.823 19.1516L78.9355 17.0215ZM45.3495 43.9591L42.4499 43.1897L42.4499 43.1897L45.3495 43.9591ZM45.9628 44.5674L46.7204 47.4701L46.7204 47.4701L45.9628 44.5674ZM47.4658 35.9839L44.5661 35.2145L44.5661 35.2145L47.4658 35.9839ZM47.5963 35.7585L49.7088 37.8886L49.7088 37.8886L47.5963 35.7585ZM68.4877 15.0398L70.6002 17.1699L70.6002 17.1699L68.4877 15.0398ZM69.1977 15.0398L71.3102 12.9097L71.3102 12.9097L69.1977 15.0398ZM75.1232 20.9163L77.2357 18.7862L77.2357 18.7862L75.1232 20.9163ZM75.1232 21.6205L73.0107 19.4904L73.0107 19.4904L75.1232 21.6205ZM54.2318 42.3392L56.3443 44.4693L56.3443 44.4693L54.2318 42.3392ZM54.0045 42.4686L54.7621 45.3714L54.7621 45.3714L54.0045 42.4686ZM74.4125 13.2751C73.439 14.2405 71.871 14.2405 70.8975 13.2751L75.1225 9.01488C73.7569 7.66056 71.5531 7.66056 70.1875 9.01488L74.4125 13.2751ZM72.0479 15.6202L74.4125 13.2751L70.1875 9.01487L67.8229 11.3599L72.0479 15.6202ZM72.0479 12.0641C73.0351 13.0432 73.0351 14.6411 72.0479 15.6202L67.8229 11.36C66.4435 12.7279 66.4434 14.9563 67.8229 16.3243L72.0479 12.0641ZM77.9733 17.9406L72.0479 12.0641L67.8229 16.3243L73.7483 22.2008L77.9733 17.9406ZM74.4583 17.9406C75.4318 16.9752 76.9999 16.9752 77.9733 17.9406L73.7483 22.2008C75.1139 23.5551 77.3177 23.5551 78.6833 22.2008L74.4583 17.9406ZM76.823 15.5955L74.4583 17.9406L78.6833 22.2008L81.048 19.8557L76.823 15.5955ZM76.823 19.1516C75.8357 18.1725 75.8357 16.5746 76.823 15.5955L81.048 19.8557C82.4274 18.4877 82.4274 16.2593 81.048 14.8913L76.823 19.1516ZM70.8975 13.2751L76.823 19.1516L81.048 14.8914L75.1225 9.01487L70.8975 13.2751ZM42.4499 43.1897C41.7502 45.8265 44.1732 48.1349 46.7204 47.4701L45.2053 41.6646C47.0088 41.1939 48.7532 42.8292 48.2492 44.7285L42.4499 43.1897ZM44.5661 35.2145L42.4499 43.1897L48.2492 44.7285L50.3654 36.7533L44.5661 35.2145ZM45.4838 33.6284C45.0437 34.0649 44.726 34.6118 44.5661 35.2145L50.3654 36.7533C50.2507 37.1855 50.0232 37.5769 49.7088 37.8886L45.4838 33.6284ZM66.3752 12.9097L45.4838 33.6284L49.7088 37.8886L70.6002 17.1699L66.3752 12.9097ZM71.3102 12.9097C69.9446 11.5554 67.7408 11.5554 66.3752 12.9097L70.6002 17.1699C69.6267 18.1353 68.0587 18.1353 67.0852 17.1699L71.3102 12.9097ZM77.2357 18.7862L71.3102 12.9097L67.0852 17.1699L73.0107 23.0464L77.2357 18.7862ZM77.2357 23.7506C78.6151 22.3826 78.6151 20.1542 77.2357 18.7862L73.0107 23.0464C72.0234 22.0673 72.0234 20.4695 73.0107 19.4904L77.2357 23.7506ZM56.3443 44.4693L77.2357 23.7506L73.0107 19.4904L52.1193 40.2091L56.3443 44.4693ZM54.7621 45.3714C55.358 45.2159 55.9044 44.9055 56.3443 44.4693L52.1193 40.2091C52.4335 39.8975 52.823 39.6765 53.247 39.5658L54.7621 45.3714ZM46.7204 47.4701L54.7621 45.3714L53.247 39.5658L45.2053 41.6646L46.7204 47.4701Z" fill="#6D28D9" mask="url(#path-2-inside-1)"/>
<defs>
<linearGradient id="paint0_linear" x1="65.5" y1="44.4105" x2="65.5" y2="156.579" gradientUnits="userSpaceOnUse">
<stop stop-color="#6D28D9"/>
<stop offset="1" stop-color="#3B82F6"/>
</linearGradient>
</defs>
</svg>
